<svg width="17" height="20" viewBox="0 0 17 20" fill="none" xmlns="http://www.w3.org/2000/svg">
<g clip-path="url(#clip0)">
<path d="M15.64 18H15.4C15.1 18 14.84 18 14.81 17.66C14.16 11.28 10.16 11.16 10.16 9.66C10.16 8.16 14.16 8.04 14.86 1.66C14.86 1.36 15.15 1.32 15.45 1.32C15.6217 1.31249 15.7842 1.24025 15.9048 1.1178C16.0254 0.995354 16.0951 0.831789 16.1 0.660001C16.104 0.571673 16.0903 0.483437 16.0595 0.40053C16.0288 0.317624 15.9817 0.241737 15.9211 0.177378C15.8605 0.113018 15.7875 0.0614967 15.7066 0.0258729C15.6257 -0.00975082 15.5384 -0.0287509 15.45 -0.0299988H0.68C0.49874 -0.0273715 0.325794 0.0464829 0.198548 0.175599C0.0713032 0.304716 -1.87565e-05 0.478721 2.82482e-07 0.660001C-0.00266152 0.74882 0.012371 0.837281 0.0442226 0.920235C0.0760742 1.00319 0.124109 1.07898 0.18553 1.14319C0.246951 1.2074 0.320531 1.25876 0.401988 1.29426C0.483445 1.32977 0.571151 1.34871 0.66 1.35H0.920001C1.22 1.35 1.48 1.35 1.51 1.69C2.2 8.06 6.21 8.18 6.21 9.69C6.21 11.2 2.21 11.31 1.51 17.69C1.51 17.99 1.22 18.03 0.920001 18.03H0.68C0.508665 18.0318 0.344142 18.0974 0.21845 18.2138C0.0927582 18.3303 0.01489 18.4893 2.82482e-07 18.66C-0.00266152 18.7488 0.012371 18.8373 0.0442226 18.9202C0.0760742 19.0032 0.124109 19.079 0.18553 19.1432C0.246951 19.2074 0.320531 19.2588 0.401988 19.2943C0.483445 19.3298 0.571151 19.3487 0.66 19.35H15.66C15.7493 19.3501 15.8376 19.3321 15.9197 19.2971C16.0018 19.262 16.0759 19.2107 16.1376 19.1462C16.1993 19.0817 16.2473 19.0054 16.2786 18.9218C16.31 18.8382 16.3241 18.7492 16.32 18.66C16.3124 18.484 16.2377 18.3175 16.1112 18.1948C15.9848 18.0721 15.8162 18.0024 15.64 18ZM3.81 16.4C5.16 12.66 7.55 13.11 7.55 11.66V9.03C7.55 8.12 5.28 7.91 4.2 6.44C4.02 6.19 2.02 0.940001 2.33 0.940001H13.87C14.17 0.940001 12.5 6.15 12.33 6.39C11.27 7.88 8.77 8.12 8.77 9.03V11.66C8.77 13.12 11.07 12.72 12.51 16.42C12.65 16.75 12.51 17.17 12.19 17.17H4.16C3.78 17.15 3.69 16.74 3.81 16.4Z" fill="url(#paint0_linear)"/>
<path d="M7.55 10.66V8.06001C7.55 6.60001 5.25 6.99001 3.81 3.30001C3.68 2.96001 3.81 2.55001 4.13 2.55001H12.16C12.52 2.55001 12.61 2.96001 12.49 3.30001C11.16 7.08001 8.78 6.66001 8.78 8.10001V10.66L10.16 9.66001C10.16 8.16001 13.96 8.04001 14.64 1.66001C14.64 1.36001 14.93 1.32001 15.24 1.32001H15.48C15.6464 1.30533 15.8015 1.22994 15.9158 1.10822C16.0302 0.986498 16.0957 0.826956 16.1 0.660007C16.104 0.571679 16.0903 0.483442 16.0595 0.400536C16.0288 0.317629 15.9817 0.241743 15.9211 0.177383C15.8605 0.113024 15.7875 0.0615023 15.7066 0.0258786C15.6257 -0.00974521 15.5384 -0.0287453 15.45 -0.0299932H0.66C0.570331 -0.0315437 0.48131 -0.0145215 0.398539 0.0200027C0.315768 0.054527 0.241036 0.105806 0.179045 0.170615C0.117054 0.235424 0.0691454 0.312359 0.0383321 0.396583C0.00751882 0.480806 -0.00553225 0.570495 1.05007e-07 0.660007C0.0148898 0.830703 0.092758 0.989754 0.21845 1.1062C0.344142 1.22265 0.508665 1.28817 0.68 1.29001C0.99 1.29001 1.25 1.29001 1.28 1.63001C1.96 8.00001 6.19 8.12001 6.19 9.63001L7.55 10.66Z" fill="url(#paint1_linear)"/>
</g>
<defs>
<linearGradient id="paint0_linear" x1="-0.000300286" y1="9.66" x2="16.3207" y2="9.66" gradientUnits="userSpaceOnUse">
<stop stop-color="#2094CA"/>
<stop offset="1" stop-color="#1C5DC4"/>
</linearGradient>
<linearGradient id="paint1_linear" x1="-0.00123775" y1="5.31496" x2="16.1007" y2="5.31496" gradientUnits="userSpaceOnUse">
<stop stop-color="#2094CA"/>
<stop offset="1" stop-color="#1C5DC4"/>
</linearGradient>
<clipPath id="clip0">
<rect width="16.31" height="19.31" fill="white"/>
</clipPath>
</defs>
</svg>
